<?xml version="1.0" standalone="no"?>
<!DOCTYPE svg PUBLIC "-//W3C//DTD SVG 20010904//EN"
 "http://www.w3.org/TR/2001/REC-SVG-20010904/DTD/svg10.dtd">
<svg version="1.0" xmlns="http://www.w3.org/2000/svg"
 width="192.000000pt" height="192.000000pt" viewBox="0 0 192.000000 192.000000"
 preserveAspectRatio="xMidYMid meet">

<g transform="translate(0.000000,192.000000) scale(0.100000,-0.100000)"
fill="#000000" stroke="none">
<path d="M1226 1318 c-4 -24 -15 -119 -26 -213 -11 -93 -27 -226 -36 -295 -22
-177 -23 -254 -4 -257 37 -7 41 11 85 373 24 198 45 375 47 394 3 33 1 35 -29
38 -30 3 -32 1 -37 -40z"/>
<path d="M994 1011 c-22 -10 -50 -31 -62 -46 l-22 -28 0 42 c0 37 -2 41 -24
41 -14 0 -28 -4 -31 -10 -10 -16 -58 -429 -51 -445 3 -8 11 -15 18 -15 32 1
41 21 54 126 17 133 35 188 75 237 22 27 41 39 69 43 44 7 76 35 67 59 -8 20
-43 19 -93 -4z"/>
<path d="M356 1003 c-13 -45 -38 -315 -32 -347 21 -112 148 -137 238 -47 l37
37 6 -37 c4 -21 12 -42 18 -47 17 -14 60 5 54 22 -17 43 -16 144 2 276 10 80
17 148 14 153 -6 10 -51 9 -58 -2 -3 -5 -12 -58 -20 -118 -16 -123 -24 -152
-53 -209 -35 -69 -122 -94 -159 -46 -17 22 -16 83 2 227 20 161 20 155 -14
155 -20 0 -31 -6 -35 -17z"/>
<path d="M1429 1005 c-56 -30 -76 -104 -44 -164 8 -16 37 -46 65 -66 28 -20
58 -51 66 -67 41 -79 -42 -126 -137 -78 -44 23 -59 20 -59 -14 0 -51 155 -81
214 -43 31 21 66 74 66 100 0 38 -34 89 -90 133 -66 52 -85 82 -76 119 10 40
48 53 104 33 48 -18 65 -11 59 22 -6 37 -116 53 -168 25z"/>
</g>
</svg>
